<svg xmlns="http://www.w3.org/2000/svg">

    <!-- (Eld) -->
    <symbol id="streak-fire" viewBox="0 0 24 24" class="lucide lucide-flame text-primary">
        <path d="M8.5 14.5A2.5 2.5 0 0 0 11 12c0-1.38-.5-2-1-3-1.072-2.143-.224-4.054 2-6 .5 2.5 2 4.9 4 6.5 2 1.6 3 3.5 3 5.5a7 7 0 1 1-14 0c0-1.153.433-2.294 1-3a2.5 2.5 0 0 0 2.5 2.5z"></path>
    </symbol>

    <!-- (Medalj) -->
    <symbol id="award-icon" viewBox="0 0 24 24" class="lucide lucide-award text-primary">
        <path d="m15.477 12.89 1.515 8.526a.5.5 0 0 1-.81.47l-3.58-2.687a1 1 0 0 0-1.197 0l-3.586 2.686a.5.5 0 0 1-.81-.469l1.514-8.526"></path>
        <circle cx="12" cy="8" r="6"></circle>
    </symbol>

    <!-- (Lås) -->
    <symbol id="locked-icon" viewBox="0 0 24 24" class="lucide lucide-lock text-muted-foreground" stroke="#6d7878">
        <rect width="18" height="11" x="3" y="11" rx="2" ry="2"></rect>
        <path d="M7 11V7a5 5 0 0 1 10 0v4"></path>
    </symbol>

    <!-- (Hus) -->
    <symbol id="house-icon" viewBox="0 0 24 24" class="lucide lucide-house-icon lucide-house">   
        <path d="M15 21v-8a1 1 0 0 0-1-1h-4a1 1 0 0 0-1 1v8"/>
        <path d="M3 10a2 2 0 0 1 .709-1.528l7-6a2 2 0 0 1 2.582 0l7 6A2 2 0 0 1 21 10v9a2 2 0 0 1-2 2H5a2 2 0 0 1-2-2z"/>
    </symbol>

    <!-- (Hantel) -->
    <symbol id="dumbbell-icon" viewBox="0 0 24 24" class="lucide lucide-dumbbell-icon lucide-dumbbell">
        <path d="M17.596 12.768a2 2 0 1 0 2.829-2.829l-1.768-1.767a2 2 0 0 0 2.828-2.829l-2.828-2.828a2 2 0 0 0-2.829 2.828l-1.767-1.768a2 2 0 1 0-2.829 2.829z"/>
        <path d="m2.5 21.5 1.4-1.4"/>
        <path d="m20.1 3.9 1.4-1.4"/>
        <path d="M5.343 21.485a2 2 0 1 0 2.829-2.828l1.767 1.768a2 2 0 1 0 2.829-2.829l-6.364-6.364a2 2 0 1 0-2.829 2.829l1.768 1.767a2 2 0 0 0-2.828 2.829z"/>
        <path d="m9.6 14.4 4.8-4.8"/>
    </symbol>

    <!-- (Bebis) -->
    <symbol id="baby-icon" viewBox="0 0 24 24" class="lucide lucide-baby-icon lucide-baby">
        <path d="M10 16c.5.3 1.2.5 2 .5s1.5-.2 2-.5"/>
        <path d="M15 12h.01"/>
        <path d="M19.38 6.813A9 9 0 0 1 20.8 10.2a2 2 0 0 1 0 3.6 9 9 0 0 1-17.6 0 2 2 0 0 1 0-3.6A9 9 0 0 1 12 3c2 0 3.5 1.1 3.5 2.5s-.9 2.5-2 2.5c-.8 0-1.5-.4-1.5-1"/>
        <path d="M9 12h.01"/>
    </symbol>

    <!-- (Måne) -->
    <symbol id="moon-icon" viewBox="0 0 24 24" class="lucide lucide-moon-star-icon lucide-moon-star">
       <path d="M18 5h4"/>
       <path d="M20 3v4"/>
       <path d="M20.985 12.486a9 9 0 1 1-9.473-9.472c.405-.022.617.46.402.803a6 6 0 0 0 8.268 8.268c.344-.215.825-.004.803.401"/>
    </symbol>

    <!-- (Sol) -->
    <symbol id="sun-icon" viewBox="0 0 24 24" class="lucide lucide-sun-medium-icon lucide-sun-medium">
        <circle cx="12" cy="12" r="4"/>
        <path d="M12 3v1"/>
        <path d="M12 20v1"/>
        <path d="M3 12h1"/>
        <path d="M20 12h1"/>
        <path d="m18.364 5.636-.707.707"/>
        <path d="m6.343 17.657-.707.707"/>
        <path d="m5.636 5.636.707.707"/>
        <path d="m17.657 17.657.707.707"/>
    </symbol>

    <!-- (Blixt) -->
    <symbol id="lightning-icon" viewBox="0 0 24 24" class="lucide lucide-zap-icon lucide-zap">
        <path d="M4 14a1 1 0 0 1-.78-1.63l9.9-10.2a.5.5 0 0 1 .86.46l-1.92 6.02A1 1 0 0 0 13 10h7a1 1 0 0 1 .78 1.63l-9.9 10.2a.5.5 0 0 1-.86-.46l1.92-6.02A1 1 0 0 0 11 14z"/>
    </symbol>

    <!-- (Stjärna) -->
    <symbol id="star-icon" viewBox="0 0 24 24" class="lucide lucide-star-icon lucide-star">
        <path d="M11.525 2.295a.53.53 0 0 1 .95 0l2.31 4.679a2.123 2.123 0 0 0 1.595 1.16l5.166.756a.53.53 0 0 1 .294.904l-3.736 3.638a2.123 2.123 0 0 0-.611 1.878l.882 5.14a.53.53 0 0 1-.771.56l-4.618-2.428a2.122 2.122 0 0 0-1.973 0L6.396 21.01a.53.53 0 0 1-.77-.56l.881-5.139a2.122 2.122 0 0 0-.611-1.879L2.16 9.795a.53.53 0 0 1 .294-.906l5.165-.755a2.122 2.122 0 0 0 1.597-1.16z"/>
    </symbol>

    <!-- (Klocka) -->
    <symbol id="clock-icon" viewBox="0 0 24 24" class="lucide lucide-clock-icon lucide-clock">
        <circle cx="12" cy="12" r="10"/>
        <path d="M12 6v6l4 2"/>
    </symbol>

    <!-- (Kalender) -->
    <symbol id="calendar-icon" viewBox="0 0 24 24" class="lucide lucide-calendar-check-icon lucide-calendar-check">
        <path d="M8 2v4"/>
        <path d="M16 2v4"/>
        <rect width="18" height="18" x="3" y="4" rx="2"/>
        <path d="M3 10h18"/>
        <path d="m9 16 2 2 4-4"/>
    </symbol>

    <!-- (Arm) -->
    <symbol id="bicep-icon" viewBox="0 0 24 24" class="lucide lucide-biceps-flexed-icon lucide-biceps-flexed">
        <path d="M12.409 13.017A5 5 0 0 1 22 15c0 3.866-4 7-9 7-4.077 0-8.153-.82-10.371-2.462-.426-.316-.631-.832-.62-1.362C2.118 12.723 2.627 2 10 2a3 3 0 0 1 3 3 2 2 0 0 1-2 2c-1.105 0-1.64-.444-2-1"/>
        <path d="M15 14a5 5 0 0 0-7.584 2"/>
        <path d="M9.964 6.825C8.019 7.977 9.5 13 8 15"/>
    </symbol>

    <!-- (Vikt) -->
    <symbol id="weight-icon" viewBox="0 0 24 24" class="lucide lucide-weight-icon lucide-weight">
        <circle cx="12" cy="5" r="3"/>
        <path d="M6.5 8a2 2 0 0 0-1.905 1.46L2.1 18.5A2 2 0 0 0 4 21h16a2 2 0 0 0 1.925-2.54L19.4 9.5A2 2 0 0 0 17.48 8Z"/>
    </symbol>

    <!--  -->
    <symbol id="" viewBox="0 0 24 24"></symbol>

</svg>